inDegrees=no
num_controls=7
num_derivatives=13
num_iterations=71
num_multipliers=7
num_parameters=0
num_slacks=7
num_states=26
objective=0.470348
objective_accelerations=0.061218
objective_balance=0.001756
objective_effort=0.019507
objective_height=0.378323
objective_ligament=0.009545
solver_duration=938.548696
status=Solve_Succeeded
success=true
DataType=double
version=3
OpenSimVersion=4.5
endheader
time	/jointset/ground_pelvis/pelvis_tilt/value	/jointset/ground_pelvis/pelvis_tx/value	/jointset/ground_pelvis/pelvis_ty/value	/jointset/hip_l/hip_flexion_l/value	/jointset/hip_l/hip_adduction_l/value	/jointset/hip_l/hip_rotation_l/value	/jointset/back/lumbar_extension/value	/jointset/patellofemoral_l/patellar_flexion_l/value	/jointset/knee_l/knee_flexion_l/value	/jointset/knee_l/knee_adduction_l/value	/jointset/knee_l/knee_rotation_l/value	/jointset/ankle_l/ankle_angle_l/value	/jointset/subtalar_l/subtalar_angle_l/value	/jointset/ground_pelvis/pelvis_tilt/speed	/jointset/ground_pelvis/pelvis_tx/speed	/jointset/ground_pelvis/pelvis_ty/speed	/jointset/hip_l/hip_flexion_l/speed	/jointset/hip_l/hip_adduction_l/speed	/jointset/hip_l/hip_rotation_l/speed	/jointset/back/lumbar_extension/speed	/jointset/patellofemoral_l/patellar_flexion_l/speed	/jointset/knee_l/knee_flexion_l/speed	/jointset/knee_l/knee_adduction_l/speed	/jointset/knee_l/knee_rotation_l/speed	/jointset/ankle_l/ankle_angle_l/speed	/jointset/subtalar_l/subtalar_angle_l/speed	/forceset/tau_hip_flexion_l	/forceset/tau_hip_adduction_l	/forceset/tau_hip_rotation_l	/forceset/tau_knee_flexion_l	/forceset/tau_ankle_angle_l	/forceset/tau_subtalar_angle_l	/forceset/tau_lumbar_extension	lambda_cid13_p0	lambda_cid13_p1	lambda_cid13_p2	lambda_cid13_p3	lambda_cid13_p4	lambda_cid13_p5	lambda_cid14_p0	/jointset/ground_pelvis/pelvis_tilt/accel	/jointset/ground_pelvis/pelvis_tx/accel	/jointset/ground_pelvis/pelvis_ty/accel	/jointset/hip_l/hip_flexion_l/accel	/jointset/hip_l/hip_adduction_l/accel	/jointset/hip_l/hip_rotation_l/accel	/jointset/back/lumbar_extension/accel	/jointset/patellofemoral_l/patellar_flexion_l/accel	/jointset/knee_l/knee_flexion_l/accel	/jointset/knee_l/knee_adduction_l/accel	/jointset/knee_l/knee_rotation_l/accel	/jointset/ankle_l/ankle_angle_l/accel	/jointset/subtalar_l/subtalar_angle_l/accel	gamma_cid13_p0	gamma_cid13_p1	gamma_cid13_p2	gamma_cid13_p3	gamma_cid13_p4	gamma_cid13_p5	gamma_cid14_p0
0.5	-0.4009116910131627	-0.05308983405274531	0.7799491609586261	1.157315514695229	-0.3534086652865325	-0.06306098738771422	-0.4074758810662166	0.7201853737846439	0.7201853737846453	-0.05335425045088202	-0.1741428770820021	0.07003361559950881	0.08873870604481031	-1.270595964007322	-0.371319905136021	-0.480045283618459	2.796117709416079	0.03969408989304215	0.4376377364935968	-0.2799603075729533	1.349552286013187	1.349552286013162	0.2031057728503166	0.002662101748482412	-0.07363608532844082	0.01425557263106715	-0.1617821457135565	0.0289371810477876	0.005009018757747556	-0.1448307311063115	0.08901143487991199	-0.01259066846565795	0.148078787518477	2.610876302150154	5.615589914615063	-1.866896737961659	-7.301150612879632	-436.894679517819	-46.29168030403281	-14.3561688213577	0.4678634188732101	0.647712384256576	-0.3513385764445837	-1.659653077842025	0.09177028645352298	-0.3292585741032959	1.50834817020253	-1.107258166300153	-1.107258166300132	-0.4890837534016769	0.09691419113107401	-0.0508194058201221	0.08432293102584666	-6.257618883647223e-09	-1.419531355230104e-06	-5.967536007251741e-07	-2.872060456110993e-07	-2.19308437870652e-07	1.261627052648121e-07	-1.677682669528356e-07
0.51	-0.4135916601289776	-0.05677018630758931	0.7751323628190178	1.18518861984749	-0.3530077145690012	-0.05870652201444757	-0.4102010577854325	0.7336232538446621	0.7336232538445823	-0.05134597803243973	-0.1741159472366035	0.06929455914288105	0.08888487988166582	-1.265231112379165	-0.364711863423473	-0.4832018926418759	2.778124527879451	0.04051219398589136	0.4330953292273704	-0.2650698114973279	1.337817317084322	1.337817317084247	0.198650626083364	0.002660239709395419	-0.0741727425024389	0.01499916092732466	-0.1685801698060582	0.02996735858936854	0.004536652278926571	-0.144697059923348	0.08964326907464466	-0.01190262819608268	0.1527716582656849	2.670478688486462	5.402673051250163	-1.942989372216619	-7.443838535984029	-440.3391369624679	-46.27527748303583	-13.80557231600836	0.5957862695445855	0.6730875979530222	-0.2809880374752874	-1.925991816739441	0.07959863618287534	-0.5408364558651767	1.480184042397572	-1.237547000626246	-1.2375470006338	-0.4087790280304593	-0.05838783584313494	-0.05478360384850949	0.07271676471009271	5.091238506995867e-09	-1.419364313850647e-06	-7.027764187073935e-07	-2.979521884002181e-07	-1.843367009016239e-07	1.279558079172983e-07	-1.548757296837108e-07
0.52	-0.4262129826815549	-0.06038331063866845	0.7702873653947371	1.212870424959343	-0.3525980291774405	-0.05440230164446171	-0.4127771728006625	0.7469375980664029	0.7469375980664535	-0.04937926685929289	-0.1740909662986424	0.06855019716838411	0.08903915759864087	-1.258866651360677	-0.3578743203830494	-0.485685140552699	2.757857701336167	0.04144102469804394	0.4275887358418182	-0.2501479667754876	1.3248451183776	1.324845118377475	0.1947935237288624	0.002272320293732014	-0.07469718890278476	0.01587634865495518	-0.1753781938986792	0.03099753613085581	0.004064285801438542	-0.1445633887404222	0.09027510326934585	-0.0112145879266611	0.157464529012792	2.729650306571614	5.189567381985049	-2.018750693753475	-7.585529058942851	-443.7888969539723	-46.27208954548784	-13.25866537520938	0.6677852969392368	0.6936126498316337	-0.2166663539258727	-2.114382079173284	0.113915610314245	-0.52209579796858	1.5146178994456	-1.354704121871507	-1.354704121871508	-0.3694748709114667	0.01970271581569301	-0.04837725108979535	0.1110428173003797	-1.736693992573715e-08	-1.169100783479363e-06	-4.106267391833267e-07	-2.450417073964867e-07	-2.161174442268364e-07	1.665254442307592e-07	-1.587652887786647e-07
0.53	-0.4387657626376261	-0.06392690118192951	0.76542091840919	1.240338246457027	-0.352179174847625	-0.05015472002146103	-0.4152039277514334	0.7601160810669227	0.7601160810671732	-0.0474510608134085	-0.1740697451485852	0.0678006040030195	0.08920209850100684	-1.251526679026578	-0.3508040692317027	-0.4874884345171474	2.73532511609755	0.04229895124285718	0.4219341243352978	-0.235206525445153	1.310650945586731	1.310650945586643	0.1907697616653029	0.001994753927481481	-0.07521870182913738	0.01667944234617163	-0.1820619346595452	0.03179712562820147	0.003542391558568676	-0.1447256541590811	0.09136591083300619	-0.01059357328840444	0.1620542539639225	2.928269605878134	4.995350752265078	-2.113738363202059	-7.854619616435505	-447.3417356772727	-46.26078164675121	-12.71569386832025	0.7914784440562469	0.7196457531588176	-0.144834173880325	-2.379945650266221	0.06730008537386276	-0.586287085958475	1.483381940073861	-1.481822121006902	-1.481822121001465	-0.4307372418636495	-0.04806897464610298	-0.05367026206930847	0.06027939796084032	-6.115063083174514e-08	-8.078867650640725e-07	1.305566645812639e-07	-1.552606700907407e-07	-2.767862616776384e-07	2.494059045877444e-07	-1.798918120888023e-07
0.54	-0.4512402678218737	-0.06739860633260308	0.7605399038327619	1.267569292321505	-0.3517526274706065	-0.04596351316531103	-0.4174813733508521	0.7731466126871407	0.77314661268716	-0.04556547446161732	-0.1740506161945611	0.06704586931865926	0.08937213769087082	-1.243211696996019	-0.3434972418655562	-0.4885986587286205	2.710502574696506	0.04297963414002923	0.4163137824701897	-0.2202860965049474	1.295254842263382	1.295254842263331	0.1862695848903209	0.001853881089205184	-0.07572549270193488	0.0172960061545309	-0.1887456754204742	0.0325967151255443	0.003020497316001953	-0.1448879195777418	0.09245671839667273	-0.009972558650158527	0.166643978914989	3.126050906186456	4.800435454611698	-2.207649253735492	-8.128727029337282	-450.9111567497615	-46.27602985045817	-12.17699030339372	0.8627872362314721	0.7409278927914944	-0.07805240333083131	-2.572373311658734	0.07846688078601474	-0.5152418696861594	1.510415421419869	-1.595090228367301	-1.595090228367328	-0.4647578131959569	0.04704142141046088	-0.04543284037886797	0.07373684072888975	-1.285285057507385e-07	-3.239190151958367e-07	9.472667419736713e-07	-2.46866768763823e-08	-3.69416352629093e-07	3.813111064396931e-07	-2.200890192114838e-07
0.55	-0.463626811202141	-0.07079617939726285	0.7556512549121533	1.29454087243275	-0.3513204583017241	-0.04182487407816601	-0.419609955897552	0.7860172162948706	0.7860172162947889	-0.04372989794911882	-0.1740298588643225	0.0662859803934043	0.08954699869713979	-1.233937374357847	-0.3359899677130922	-0.4890137936813305	2.683453934406859	0.04345173202903332	0.4113614000953911	-0.2054603684665067	1.278678001381259	1.278678001381218	0.1808528351058466	0.002292953136523745	-0.07624730132032201	0.01767575784647964	-0.1953985136583211	0.03330516161656561	0.002505078424221656	-0.1449428357999409	0.09325415460364399	-0.009415544350928961	0.1711237831460203	3.222872881866283	4.642335849085651	-2.297541428520014	-8.254056303074545	-454.4596641100342	-46.23979172248097	-11.64291525124157	0.9836642602124342	0.7597469863938324	-0.005728272905007441	-2.825076196248858	0.03107699566662967	-0.4933447991173389	1.464158150559561	-1.717114298984052	-1.717114298982615	-0.5790536810617456	0.04192503281426487	-0.05480668862280865	0.0198737279009692	-1.610086119289053e-07	-4.992357108562775e-08	1.367306618386556e-06	4.603101930621758e-08	-4.015919171890198e-07	4.552491227113601e-07	-2.366947794139623e-07
0.5600000000000001	-0.4759158294595071	-0.07411785575841449	0.7507619577956836	1.321231172779362	-0.3508836690034208	-0.0377373804903109	-0.4215911798327669	0.7987164248375255	0.7987164248375206	-0.04194827295819466	-0.1740047938264632	0.0655210230187553	0.08972561309922304	-1.223706672415554	-0.3283179011639278	-0.4887282979005638	2.65424662177196	0.04390366002640845	0.4060846826109594	-0.1908143742079193	1.260975829265177	1.260975829265146	0.1754792805218159	0.002715422640718007	-0.07673918258086833	0.01804668531735266	-0.2020513518962333	0.03401360810755214	0.001989659533532312	-0.1449977520221399	0.09405159081061634	-0.008858530051747091	0.1756035873769843	3.319553323033325	4.482421169971375	-2.385042180514383	-8.400755234331111	-458.0222555743833	-46.26265618262611	-11.11395928795597	1.054063097055813	0.7738863721315106	0.06207374336447972	-3.004107780708999	0.07443290246027684	-0.5801088916127639	1.474468665449273	-1.820156475158968	-1.820156475158978	-0.4561187731072555	0.0437209127855382	-0.03944736881078753	0.07197199651370131	-1.516113956180814e-07	-2.789489388504339e-08	1.311342253624029e-06	4.492115905070958e-08	-3.612220500791157e-07	4.596265162866913e-07	-2.24990803312198e-07
0.5700000000000001	-0.4880980703804718	-0.07736206040906064	0.7458789908902688	1.347619128259019	-0.3504421953515763	-0.03370525928541929	-0.4234267792553074	0.8112332068593034	0.8112332068592961	-0.04021898274051675	-0.1739761441028888	0.06475141391449951	0.08990822699299061	-1.212598631873046	-0.3205016038864626	-0.4877483504193038	2.623010522499173	0.04439898778606112	0.4001843544521439	-0.1763449711777542	1.242202736720532	1.242202736720453	0.1704789676844877	0.002946669079817466	-0.07717214498675534	0.01848975084585753	-0.2085196222679379	0.03453048926132327	0.001501781331870546	-0.1451949794012953	0.09499434641990764	-0.008413669337155778	0.1798939337133605	3.457453255934645	4.368262758680239	-2.484710061058912	-8.540855670275281	-461.5318612991735	-46.23309715717632	-10.59071335492812	1.160578622377176	0.7887240258657634	0.1333974875975533	-3.233488682738284	0.03814028230781213	-0.6184644261690079	1.427256990397078	-1.93251772525637	-1.932517725263741	-0.5069412521567536	0.002905443341688421	-0.04364537781213975	0.03237363383005879	-1.434534841578129e-07	2.360281016791478e-09	1.265850658361761e-06	4.71774692087144e-08	-3.271540219841325e-07	4.61250468020682e-07	-2.128744422507102e-07
0.58	-0.5001649500781079	-0.0805274575628704	0.7410093119070834	1.373684697209508	-0.3499955569082295	-0.02973683529170331	-0.4251188684738265	0.8235569315393985	0.8235569315393904	-0.03853668639393731	-0.1739471661281292	0.06397779024591567	0.09009565150260565	-1.200634427749374	-0.3125564017966477	-0.4860707134543726	2.58976931593938	0.04493661832929308	0.393345240367218	-0.1621123334037013	1.222364360930331	1.222364360930203	0.1660805063227197	0.002781072873698098	-0.07754209544601315	0.0190088084868142	-0.2149878926396315	0.03504737041521009	0.001013903129825007	-0.1453922067804194	0.09593710202924488	-0.007968808622421549	0.1841842800497218	3.594379739279448	4.2521648500801	-2.581658279585053	-8.70096652178899	-465.0700042582308	-46.26004241583664	-10.07392280245652	1.225295813288562	0.7996673346014159	0.2016116400986991	-3.40512923811019	0.08289345917611088	-0.7678660768348483	1.427115614226938	-2.0332131242703	-2.033213124270296	-0.3357484779952319	-0.03564761625827158	-0.02684497948503115	0.08717041900401724	-1.369095511075699e-07	4.332903432025411e-08	1.233998018727736e-06	5.381762920757292e-08	-3.012930400481161e-07	4.59288542007811e-07	-2.00221021706792e-07
0.59	-0.5121080009398455	-0.08361282691390649	0.7361598579118062	1.399408091836007	-0.3495435831445417	-0.02583949670826498	-0.4266698413109682	0.8356771321656553	0.835677132165642	-0.03689698426168056	-0.1739205770098719	0.06320075273012077	0.09028834311932579	-1.187828131913451	-0.3045016589687301	-0.4837055433693755	2.554580264067391	0.04542829727286266	0.3861599683277748	-0.1481396184132087	1.201510838582171	1.20151083858218	0.1617736665062665	0.002574972773976639	-0.07786144811752689	0.0194984131730065	-0.2213749345993952	0.03539580914687056	0.0005818484101312713	-0.1454888700160127	0.09667288075722483	-0.007593581222819079	0.1883524490240439	3.664138606098313	4.171285570727243	-2.676473162739037	-8.759858551972687	-468.495721395892	-46.21955746811415	-9.56432925344726	1.3304140259415	0.8107607145557526	0.2710937989697191	-3.625225423318605	0.02769229590038831	-0.6883987185526622	1.373741783404266	-2.136122088803302	-2.136122088782729	-0.4910608124966512	-0.007116185189482432	-0.03388182802602848	0.02503586508304403	-1.314973350294351e-07	8.122257067979274e-08	1.211630816906372e-06	6.08926515796577e-08	-2.756357079921837e-07	4.594706766472867e-07	-1.895285122998787e-07
